<svg width="103" height="24" viewBox="0 0 103 24" fill="none" xmlns="http://www.w3.org/2000/svg">
<path d="M31.2532 10.1051L38.6936 2.77917L35.871 0L29.8419 5.93627L23.8128 0L20.9901 2.77917L28.4306 10.1051C28.8203 10.4888 29.3311 10.6807 29.8419 10.6807C30.3526 10.6807 30.8635 10.4889 31.2532 10.1051ZM42.0244 17.9312L35.9952 11.995L42.0244 6.05856L39.2017 3.27937L31.7613 10.6054C30.9819 11.3728 30.9819 12.617 31.7613 13.3845L39.2017 20.7104L42.0244 17.9312ZM29.8316 18.0637L35.8607 24L38.6833 21.2208L31.2429 13.8949C30.4633 13.1275 29.1997 13.1275 28.4202 13.8949L20.9798 21.2208L23.8024 24L29.8316 18.0637ZM27.9122 13.3947C28.2865 13.0262 28.4968 12.5263 28.4968 12.0051C28.4968 11.4839 28.2865 10.9841 27.9122 10.6156L20.4718 3.28963L17.6492 6.06882L23.6784 12.005L17.6492 17.9414L20.4718 20.7206L27.9122 13.3947ZM17.5486 23.036H11.2915L10.8411 20.2345H6.76165L6.26779 23.036H0.0106506L5.39669 0.96402H12.801L17.5486 23.036ZM10.13 15.5026L9.73792 12.9295C9.7272 12.9201 9.70872 12.7912 9.67958 12.5428C9.66055 12.3343 9.55882 11.5047 9.37494 10.0565C9.35531 9.89418 9.3315 9.67272 9.30235 9.3915C9.27321 9.11028 9.2345 8.75472 9.18633 8.32584L8.9965 6.23964C8.97809 6.43998 8.95131 6.66378 8.91738 6.91158C8.88345 7.15944 8.84715 7.43064 8.8085 7.7265C8.74064 8.31708 8.69247 8.72718 8.66333 8.95566C8.63358 9.18354 8.6151 9.32238 8.60559 9.37044L8.18432 12.0425L7.57444 15.5026H10.13ZM54.9456 23.036V17.7331H49.7483V14.3588H54.4082V9.37062H49.7483V6.15426H54.9456V0.964254H43.6939V23.0359L54.9456 23.036ZM66.8531 17.7331H62.3089V0.964254H56.2547V23.0359H66.8531V17.7331ZM85.4433 23.0361H79.187L78.7362 20.2345H74.6568L74.163 23.0361H67.9055L73.2918 0.96402H80.6963L85.4433 23.0361ZM78.0255 15.5026L77.6329 12.9295C77.6226 12.9202 77.6038 12.7913 77.5748 12.5429C77.556 12.3343 77.4536 11.5048 77.27 10.0565C77.25 9.89424 77.227 9.67278 77.1973 9.39156C77.1682 9.11034 77.1294 8.75478 77.0822 8.3259L76.8919 6.2397C76.8731 6.44004 76.8465 6.66384 76.8126 6.91164C76.7786 7.1595 76.7423 7.4307 76.7035 7.72656C76.6356 8.31714 76.5872 8.72724 76.5581 8.95572C76.529 9.1836 76.5102 9.32244 76.5011 9.3705L76.0794 12.0425L75.4693 15.5026H78.0255ZM102.692 23.0361H96.1444L93.1544 15.1739C93.1253 15.0404 93.0732 14.864 93.0005 14.6449C92.9284 14.4258 92.8387 14.164 92.7327 13.8587L92.7757 15.3169V23.0361H86.7508V0.96402H92.9502C95.6797 0.96402 97.7215 1.49363 99.0775 2.55169C100.799 3.905 101.661 5.83012 101.661 8.32584C101.661 10.995 100.504 12.8393 98.1911 13.8586L102.692 23.0361ZM95.6506 8.39736C95.6506 6.7494 94.7745 5.92508 93.0229 5.92508H92.8048V11.1849H93.2114C93.9081 11.1849 94.4892 10.9236 94.9539 10.3987C95.4186 9.87552 95.6506 9.2082 95.6506 8.39736Z" fill="black"/>
</svg>
