<svg xmlns="http://www.w3.org/2000/svg" version="1.1" xmlns:xlink="http://www.w3.org/1999/xlink" xmlns:svgjs="http://svgjs.com/svgjs" width="512" height="512" x="0" y="0" viewBox="0 0 159.045 301.377" style="enable-background:new 0 0 512 512" xml:space="preserve"><g><path d="M59.904 121.1c-3.731-.997-8.306-1.688-13.834-1.688-.142 0-.278.005-.42.006a123.65 123.65 0 0 0 2.056 9.673c6.08-.143 11.104-3.538 12.198-7.991zM64.851 127.093l4.425-2.096a30.809 30.809 0 0 0-2.796-1.51 15.267 15.267 0 0 1-1.629 3.606zM67.57 93.83c0-3.443-.83-6.686-2.27-9.572-3.731 1.283-11.114 3.66-20.356 5.85-.926 6.421-1.28 14.867.081 25.17.349.016.692.052 1.044.052 11.874 0 21.5-9.626 21.5-21.5zM62.455 79.929c-3.944-4.644-9.816-7.599-16.386-7.599-.678 0-1.347.04-2.009.102V50.76c1.307.58 3.23 1.23 6.004 1.974 7.316 1.96 17.76 3.822 18.048 2.745s-9.686-4.687-17.002-6.647a74.835 74.835 0 0 0-2.336-.588 77.78 77.78 0 0 0 4.165-1.4c8.506-3.095 20.005-8.43 19.55-9.684-.457-1.252-12.695 2.052-21.2 5.148-.94.341-1.78.663-2.555.973a89.707 89.707 0 0 0 1.634-2.261c5.191-7.415 11.55-18.381 10.459-19.146s-9.222 8.962-14.414 16.377c-.36.514-.691.998-1.005 1.465.008-.534.013-1.09.013-1.677 0-9.753-1.165-23.363-2.601-23.363-1.437 0-2.601 13.61-2.601 23.362 0 .587.004 1.144.013 1.678-.314-.467-.646-.951-1.006-1.465-5.192-7.415-13.322-17.141-14.414-16.377-1.092.765 5.268 11.731 10.46 19.146.585.836 1.125 1.58 1.634 2.26a89.998 89.998 0 0 0-2.555-.972c-8.505-3.096-20.744-6.4-21.2-5.148S24.195 43.75 32.7 46.845a77.69 77.69 0 0 0 4.166 1.4c-.711.167-1.484.36-2.337.588-7.315 1.96-17.29 5.57-17.002 6.647.29 1.077 10.732-.785 18.048-2.745 2.775-.743 4.698-1.394 6.004-1.974v22.046a21.295 21.295 0 0 0-4.745 1.63l-.065.003c-4.87 2.223-9.309 6.528-13.247 11.788a72.754 72.754 0 0 0-2.08 2.925c17.54-1.925 33.916-6.869 41.013-9.224zM45.029 130.758c-4.434-16.97-4.477-30.393-3.248-39.925-7.206 1.592-15.344 2.994-23.674 3.674-9.243 15.979-14.583 34.93-14.583 34.93s2.337.445 6.317.925l4.962-14.164-1.162 14.575c7.718.742 19.083 1.28 31.388-.015zM19.107 91.419c.01-.012.014-.027.023-.04a1.13 1.13 0 0 0 .158-.269c.011-.028.024-.055.033-.084.036-.112.06-.228.06-.347 0-.013-.003-.025-.004-.038a1.14 1.14 0 0 0-.025-.234c-.033-.14-.126-.512-.275-1.015-.584-1.984-2.074-6.124-4.616-7.312-1.029-.478-2.133-.454-3.196.078-1.897.948-1.986 2.358-1.87 3.113.252 1.648 1.981 3.297 3.94 4.534.723.458 1.476.86 2.2 1.183L9.16 94.93 0 100.593l1.209 1.957 11.38-7.035-10.382 12.164 1.749 1.492 7.03-8.236zm-7.439-6.496c-.018-.12-.056-.367.625-.708.236-.118.453-.177.664-.177.177 0 .351.042.53.125 1.211.566 2.316 2.763 3.025 4.765-2.244-.995-4.673-2.887-4.844-4.005z" fill="#c93db8" data-original="#000000"></path><path d="M6.013 39.958c.883-10.773 7.979-20.226 18.077-24.08l15.163-5.788V5.867a3.57 3.57 0 0 1 3.567-3.566 3.57 3.57 0 0 1 3.566 3.566v4.223l15.163 5.788c10.099 3.854 17.195 13.307 18.078 24.08l1.79 21.837 2.292-.188-1.79-21.837c-.955-11.65-8.628-21.873-19.55-26.04L48.687 8.505V5.867C48.686 2.632 46.055 0 42.82 0s-5.867 2.632-5.867 5.867v2.639L23.27 13.729C12.35 17.897 4.675 28.12 3.72 39.77L1.93 61.608l2.293.188zM19.636 163.702c.861 0 1.736-.186 2.566-.579L87.43 132.22l3.764.923a5.985 5.985 0 0 0 5.192-1.162l1.163 2.015 3.348 5.798 1.287-.743-3.5-6.061-1.225-2.123a6 6 0 0 0-3.406-9.378l-2.34-.574-1.593-2.76-18.982-32.877-1.287.743 18.296 31.69 1.567 2.713-1.496-.367a6.006 6.006 0 0 0-3.999.405l-57.685 27.33c.07-1.933.078-3.782-.032-5.26a97.08 97.08 0 0 0 3.85.905l15.597-7.39a22.417 22.417 0 0 1-7.549-1.757c-2.887.162-5.824.252-8.8.252-4.268 0-8.21-.164-11.68-.402-4.413 8.19-5.029 17.964-4.242 24.3l.005.02c.042.332.117.663.217.99.015.048.027.096.043.144.076.227.162.453.267.676.024.05.056.094.081.143a5.995 5.995 0 0 0 5.345 3.29z" fill="#c93db8" data-original="#000000"></path><path d="M139.412 17.693c-11.754 0-21.316 9.563-21.316 21.318v32.544h-1.253a.828.828 0 0 0-.825.825c0 .454.371.826.825.826h1.253v1.348h-1.253a.828.828 0 0 0-.825.826c0 .454.371.826.825.826h1.253v1.348h-1.253a.828.828 0 0 0-.825.826c0 .454.371.826.825.826h1.253v1.348h-1.253a.828.828 0 0 0-.825.826c0 .454.371.826.825.826h1.253v1.348h-1.253a.828.828 0 0 0-.825.826c0 .454.371.826.825.826h1.253v1.348h-1.253a.828.828 0 0 0-.825.826c0 .454.371.826.825.826h1.253v1.348h-1.253a.828.828 0 0 0-.825.826c0 .454.371.826.825.826h1.253v1.348h-1.253a.828.828 0 0 0-.825.826c0 .454.371.826.825.826h1.253v1.348h-1.253a.828.828 0 0 0-.825.826c0 .454.371.826.825.826h1.253v1.348h-1.253a.828.828 0 0 0-.825.826c0 .454.371.826.825.826h1.253v1.348h-1.253a.828.828 0 0 0-.825.826c0 .454.371.826.825.826h1.253v1.348h-1.253a.828.828 0 0 0-.825.826c0 .454.371.826.825.826h1.253v1.348h-1.253a.828.828 0 0 0-.825.826c0 .454.371.826.825.826h1.253v1.348h-1.253a.828.828 0 0 0-.825.826c0 .454.371.826.825.826h1.253v1.348h-1.253a.828.828 0 0 0-.825.826c0 .454.371.826.825.826h1.253v1.348h-1.253a.828.828 0 0 0-.825.826c0 .454.371.826.825.826h1.253v1.348h-1.253a.828.828 0 0 0-.825.826c0 .454.371.826.825.826h1.253v1.348h-1.253a.828.828 0 0 0-.825.826c0 .454.371.826.825.826h1.253v1.348h-1.253a.828.828 0 0 0-.825.826c0 .454.371.826.825.826h1.253v1.348h-1.253a.828.828 0 0 0-.825.826c0 .454.371.826.825.826h1.253v1.349h-1.253a.828.828 0 0 0-.825.825c0 .454.371.826.825.826h1.253v1.349h-1.253a.828.828 0 0 0-.825.825c0 .454.371.826.825.826h1.253v1.349h-1.253a.828.828 0 0 0-.825.825c0 .454.371.826.825.826h1.253v1.349h-1.253a.828.828 0 0 0-.825.825c0 .454.371.826.825.826h1.253v1.349h-1.253a.828.828 0 0 0-.825.825c0 .454.371.826.825.826h1.253v1.349h-1.253a.828.828 0 0 0-.825.825c0 .454.371.826.825.826h1.253v1.349h-1.253a.828.828 0 0 0-.825.825c0 .454.371.826.825.826h1.253v1.349h-1.253a.828.828 0 0 0-.825.825c0 .454.371.826.825.826h1.253v1.349h-1.253a.828.828 0 0 0-.825.825c0 .454.371.826.825.826h1.253v1.349h-1.253a.828.828 0 0 0-.825.825c0 .454.371.826.825.826h1.253v1.349h-1.253a.828.828 0 0 0-.825.825c0 .454.371.826.825.826h1.253v1.349h-1.253a.828.828 0 0 0-.825.825c0 .454.371.826.825.826h1.253v1.349h-1.253a.828.828 0 0 0-.825.825c0 .454.371.826.825.826h1.253v1.349h-1.253a.828.828 0 0 0-.825.825c0 .454.371.826.825.826h1.253v1.349h-.554l-29.392-16.04c-1.387-4.388-4.149-12.397-7.808-19.391l-13.804 6.54c-1.312 4.634-2.987 12-2.828 18.967.173 7.545 3.604 11.452 5.874 14.037.409.466 1.004 1.144 1.33 1.63-2.648.651-11.625 1.372-24.713 1.245-14.811-.128-22.41-1.19-24.62-2.026 1.547-2.857 2.687-9.049 3.413-14.171l-1.808.856a8.339 8.339 0 0 1-1.402.505c-.844 5.557-1.914 10.267-3.078 11.76-.585.75-.65 1.66-.173 2.433.137.223.338.543.947.901.215 5.066 3.454 82.689.523 107.24l-.03.254.055.249c.447 2.017 2.181 3.558 4.561 4.741.891 4.61 4.943 8.092 9.813 8.092a9.99 9.99 0 0 0 8.273-4.383 89.06 89.06 0 0 0 3.428.146 87.923 87.923 0 0 0 3.362-.144 9.988 9.988 0 0 0 8.271 4.38c4.867 0 8.921-3.48 9.813-8.09 2.38-1.183 4.115-2.724 4.562-4.742l.056-.25-.03-.252c-2.802-23.468.033-95.421.477-106.153.761-.31 1.363-.781 1.494-1.594.276-1.707-.904-3.051-2.27-4.607-2.102-2.393-4.981-5.671-5.129-12.126-.167-7.313 1.885-15.333 3.16-19.566 2.351 4.55 5.066 11.021 7.502 19.307a5.999 5.999 0 0 0 2.882 3.574l35.663 19.46c.034.018.069.03.103.048a.828.828 0 0 0 .824.82h1.253v1.35h-1.253a.828.828 0 0 0-.825.825c0 .454.371.826.825.826h1.253v1.348h-1.253a.828.828 0 0 0-.825.826c0 .454.371.826.825.826h1.253v1.348h-1.253a.828.828 0 0 0-.825.826c0 .454.371.826.825.826h1.253v1.348h-1.253a.828.828 0 0 0-.825.826c0 .454.371.826.825.826h1.253v1.348h-1.253a.828.828 0 0 0-.825.826c0 .454.371.826.825.826h1.253v1.348h-1.253a.828.828 0 0 0-.825.826c0 .454.371.826.825.826h1.253v1.348h-1.253a.828.828 0 0 0-.825.826c0 .454.371.826.825.826h1.253v1.348h-1.253a.828.828 0 0 0-.825.826c0 .454.371.826.825.826h1.253v1.348h-1.253c-.454 0-.825.372-.825.826s.371.826.825.826h1.253v1.348h-1.253c-.454 0-.825.372-.825.826s.371.826.825.826h1.253v1.348h-1.253c-.454 0-.825.372-.825.826s.371.826.825.826h1.253v1.348h-1.253c-.454 0-.825.372-.825.826s.371.826.825.826h1.253v1.348h-1.253c-.454 0-.825.372-.825.826s.371.826.825.826h1.253v1.348h-1.253c-.454 0-.825.372-.825.826s.371.826.825.826h1.253v1.348h-1.253c-.454 0-.825.372-.825.826s.371.826.825.826h1.253v1.348h-1.253c-.454 0-.825.372-.825.826s.371.826.825.826h1.253v1.348h-1.253c-.454 0-.825.372-.825.826s.371.826.825.826h1.253v1.348h-1.253c-.454 0-.825.372-.825.826s.371.826.825.826h1.253v1.348h-1.253c-.454 0-.825.372-.825.826s.371.826.825.826h1.253v1.348h-1.253c-.454 0-.825.372-.825.826s.371.826.825.826h1.253v1.348h-1.253c-.454 0-.825.372-.825.826s.371.826.825.826h1.253v1.348h-1.253c-.454 0-.825.372-.825.826s.371.826.825.826h1.253v24.509c-2.086-2.176-6.119-6.164-7.088-5.518-1.202.801 1.515 9.057 3.922 11.038-2.448 1.437-4.1 4.091-4.1 7.13 0 2.215.88 4.225 2.302 5.711h-2.454v3h17.835v-3h-2.871c4.854-4.541 6.199-16.617-4.546-17.033v-92.434a6 6 0 0 0 .568-10.806l-.568-.31V39.012c0-10.1 8.216-18.318 18.316-18.318 7.356 0 13.98 4.4 16.873 11.21l2.76-1.174c-3.364-7.918-11.07-13.036-19.633-13.036zM66.288 290.61c-.393-4.73-2.3-29.6-1.907-62.16l-2-.024c-.417 34.585 1.754 60.522 1.967 62.978-4.863 1.698-12.423 2.607-18.245 2.736-8.918-.194-21.795-2.192-23.087-6.032 2.8-24.214-.01-94.867-.489-106.251 3.189.725 9.04 1.4 19.977 1.631 2.127.046 4.257.068 6.347.068 8.571 0 16.457-.367 20.73-.98-.553 13.352-3.204 81.781-.457 105.532-.319.945-1.343 1.779-2.836 2.502zm47.253-13.404a.826.826 0 1 1 0-1.652.826.826 0 0 1 0 1.652zm5.56 7.889c2.905 0 5.27 2.364 5.27 5.27s-2.365 5.27-5.27 5.27-5.271-2.364-5.271-5.27 2.364-5.27 5.27-5.27z" fill="#c93db8" data-original="#000000"></path><circle cx="29.651" cy="190.674" r="2.147" fill="#c93db8" data-original="#000000"></circle><circle cx="31.797" cy="216.05" r="2.147" fill="#c93db8" data-original="#000000"></circle><circle cx="42.586" cy="202.839" r="2.147" fill="#c93db8" data-original="#000000"></circle><path d="M44.073 224.967a2.147 2.147 0 1 0 0 4.294 2.147 2.147 0 0 0 0-4.294zM31.797 234.875a2.147 2.147 0 1 0 0 4.294 2.147 2.147 0 0 0 0-4.294z" fill="#c93db8" data-original="#000000"></path><circle cx="31.797" cy="262.398" r="2.147" fill="#c93db8" data-original="#000000"></circle><path d="M42.091 249.463a2.147 2.147 0 1 0 0 4.293 2.147 2.147 0 0 0 0-4.293z" fill="#c93db8" data-original="#000000"></path><circle cx="38.128" cy="279.848" r="2.147" fill="#c93db8" data-original="#000000"></circle><path d="M50.458 234.27a2.147 2.147 0 1 0 0 4.294 2.147 2.147 0 0 0 0-4.294z" fill="#c93db8" data-original="#000000"></path><circle cx="50.018" cy="265.261" r="2.147" fill="#c93db8" data-original="#000000"></circle><circle cx="57.394" cy="248.087" r="2.147" fill="#c93db8" data-original="#000000"></circle><circle cx="57.504" cy="279.793" r="2.147" fill="#c93db8" data-original="#000000"></circle><circle cx="52.66" cy="190.343" r="2.147" fill="#c93db8" data-original="#000000"></circle><path d="M50.403 211.15a2.147 2.147 0 1 0 0 4.294 2.147 2.147 0 0 0 0-4.293z" fill="#c93db8" data-original="#000000"></path><circle cx="62.678" cy="198.986" r="2.147" fill="#c93db8" data-original="#000000"></circle><circle cx="31.797" cy="173.004" r="2.147" fill="#c93db8" data-original="#000000"></circle><circle cx="40.219" cy="163.426" r="2.147" fill="#c93db8" data-original="#000000"></circle><circle cx="60.201" cy="174.821" r="2.147" fill="#c93db8" data-original="#000000"></circle><circle cx="48.642" cy="171.848" r="2.147" fill="#c93db8" data-original="#000000"></circle><circle cx="56.733" cy="158.252" r="2.147" fill="#c93db8" data-original="#000000"></circle><circle cx="63.559" cy="215.554" r="2.147" fill="#c93db8" data-original="#000000"></circle></g></svg>